<svg width="900" height="900" viewBox="0 0 900 900" fill="none" xmlns="http://www.w3.org/2000/svg">
    <rect x="13.5" y="13.5" width="873" height="873" rx="436.5" fill="white" stroke="#E4FFF9" stroke-width="27"/>
    <rect x="103.5" y="103.5" width="693" height="693" rx="346.5" fill="white" stroke="#E4FFF9" stroke-width="27"/>
    <circle cx="715" cy="665" r="30" fill="white" stroke="#F6FAFF" stroke-width="10"/>
    <circle cx="645" cy="165" r="30" fill="white" stroke="#F6FAFF" stroke-width="10"/>
    <circle cx="265" cy="845" r="30" fill="white" stroke="#F6FAFF" stroke-width="10"/>
    <circle cx="125" cy="155" r="30" fill="white" stroke="#F6FAFF" stroke-width="10"/>
    <path d="M393.725 554.6V565.856H384.485V554.6H377.765V584H384.485V572.324H393.725V584H400.445V554.6H393.725ZM413.891 554.6V584H420.611V554.6H413.891ZM453.803 554.6H431.963V561.068H439.523V584H446.243V561.068H453.803V554.6ZM483.373 568.754C484.969 567.368 485.935 565.436 485.935 563C485.935 557.918 481.777 554.6 476.653 554.6H465.145V584H477.493C482.743 584 486.985 580.598 486.985 575.39C486.985 572.408 485.557 570.14 483.373 568.754ZM476.653 560.9C478.207 560.9 479.215 561.992 479.215 563.504C479.215 565.016 478.165 566.108 476.653 566.108H471.865V560.9H476.653ZM477.493 577.7H471.865V572.072H477.493C479.173 572.072 480.265 573.248 480.265 574.886C480.265 576.524 479.173 577.7 477.493 577.7ZM517.418 584H524.768L514.772 554.6H506.204L496.208 584H503.558L505.028 579.38H515.948L517.418 584ZM507.044 573.08L510.488 562.286L513.932 573.08H507.044Z" fill="#2398AB"/>
    <rect x="360" y="310" width="180" height="180" rx="10" fill="#2398AB"/>
</svg>
