<svg width="30" height="15" viewBox="0 0 30 15" fill="none" xmlns="http://www.w3.org/2000/svg">
    <path d="M18.8182 1H22.6364C23.472 1 24.2996 1.16813 25.0716 1.49478C25.8437 1.82144 26.5452 2.30023 27.1361 2.90381C27.7271 3.50739 28.1958 4.22394 28.5156 5.01256C28.8354 5.80117 29 6.64641 29 7.5C29 8.35359 28.8354 9.19883 28.5156 9.98744C28.1958 10.7761 27.7271 11.4926 27.1361 12.0962C26.5452 12.6998 25.8437 13.1786 25.0716 13.5052C24.2996 13.8319 23.472 14 22.6364 14H18.8182M11.1818 14H7.36364C6.52795 14 5.70045 13.8319 4.92838 13.5052C4.15631 13.1786 3.45478 12.6998 2.86387 12.0962C1.67045 10.8772 1 9.22391 1 7.5C1 5.77609 1.67045 4.12279 2.86387 2.90381C4.05728 1.68482 5.67589 1 7.36364 1H11.1818M9.90909 7.5H20.0909" stroke="#2398AB" stroke-width="2" stroke-linecap="round" stroke-linejoin="round"/>
</svg>
